%TF.GenerationSoftware,KiCad,Pcbnew,(5.1.6)-1*%
%TF.CreationDate,2020-10-14T00:10:15+11:00*%
%TF.ProjectId,MPR121 Template,4d505231-3231-4205-9465-6d706c617465,rev?*%
%TF.SameCoordinates,Original*%
%TF.FileFunction,Legend,Top*%
%TF.FilePolarity,Positive*%
%FSLAX46Y46*%
G04 Gerber Fmt 4.6, Leading zero omitted, Abs format (unit mm)*
G04 Created by KiCad (PCBNEW (5.1.6)-1) date 2020-10-14 00:10:15*
%MOMM*%
%LPD*%
G01*
G04 APERTURE LIST*
%ADD10C,1.200000*%
%ADD11C,0.120000*%
%ADD12C,1.250000*%
%ADD13C,0.150000*%
G04 APERTURE END LIST*
D10*
%TO.C,REF\u002A\u002A\u002A*%
X107000000Y-95000000D02*
G75*
G03*
X107000000Y-95000000I-19000000J0D01*
G01*
D11*
%TO.C,C1*%
X130415001Y-57060001D02*
X129415001Y-57060001D01*
X129415001Y-58760001D02*
X130415001Y-58760001D01*
%TO.C,C2*%
X130415001Y-59880001D02*
X129415001Y-59880001D01*
X129415001Y-61580001D02*
X130415001Y-61580001D01*
%TO.C,R1*%
X113365001Y-58820001D02*
X112165001Y-58820001D01*
X112165001Y-57060001D02*
X113365001Y-57060001D01*
%TO.C,R2*%
X119115001Y-58820001D02*
X117915001Y-58820001D01*
X117915001Y-57060001D02*
X119115001Y-57060001D01*
%TO.C,R3*%
X124865001Y-58820001D02*
X123665001Y-58820001D01*
X123665001Y-57060001D02*
X124865001Y-57060001D01*
D12*
%TO.C,U1*%
X101537001Y-58006001D02*
G75*
G03*
X101537001Y-58006001I-381000J0D01*
G01*
D11*
%TO.C,U2*%
X113825001Y-60495001D02*
X114325001Y-60495001D01*
X114325001Y-60495001D02*
X114325001Y-60995001D01*
X111505001Y-63815001D02*
X111005001Y-63815001D01*
X111005001Y-63815001D02*
X111005001Y-63315001D01*
X113825001Y-63815001D02*
X114325001Y-63815001D01*
X114325001Y-63815001D02*
X114325001Y-63315001D01*
X111005001Y-60495001D02*
X111505001Y-60495001D01*
D10*
%TO.C,J1*%
X125000000Y-103500000D02*
X125000000Y-83500000D01*
X130500000Y-78000000D02*
G75*
G03*
X130500000Y-78000000I-5500000J0D01*
G01*
X130500000Y-109000000D02*
G75*
G03*
X130500000Y-109000000I-5500000J0D01*
G01*
%TO.C,REF\u002A\u002A\u002A*%
D13*
X86285714Y-95452380D02*
X85952380Y-94976190D01*
X85714285Y-95452380D02*
X85714285Y-94452380D01*
X86095238Y-94452380D01*
X86190476Y-94500000D01*
X86238095Y-94547619D01*
X86285714Y-94642857D01*
X86285714Y-94785714D01*
X86238095Y-94880952D01*
X86190476Y-94928571D01*
X86095238Y-94976190D01*
X85714285Y-94976190D01*
X86714285Y-94928571D02*
X87047619Y-94928571D01*
X87190476Y-95452380D02*
X86714285Y-95452380D01*
X86714285Y-94452380D01*
X87190476Y-94452380D01*
X87952380Y-94928571D02*
X87619047Y-94928571D01*
X87619047Y-95452380D02*
X87619047Y-94452380D01*
X88095238Y-94452380D01*
X88619047Y-94452380D02*
X88619047Y-94690476D01*
X88380952Y-94595238D02*
X88619047Y-94690476D01*
X88857142Y-94595238D01*
X88476190Y-94880952D02*
X88619047Y-94690476D01*
X88761904Y-94880952D01*
X89380952Y-94452380D02*
X89380952Y-94690476D01*
X89142857Y-94595238D02*
X89380952Y-94690476D01*
X89619047Y-94595238D01*
X89238095Y-94880952D02*
X89380952Y-94690476D01*
X89523809Y-94880952D01*
X90142857Y-94452380D02*
X90142857Y-94690476D01*
X89904761Y-94595238D02*
X90142857Y-94690476D01*
X90380952Y-94595238D01*
X90000000Y-94880952D02*
X90142857Y-94690476D01*
X90285714Y-94880952D01*
%TO.C,C1*%
X129748334Y-56517143D02*
X129700715Y-56564762D01*
X129557858Y-56612381D01*
X129462620Y-56612381D01*
X129319762Y-56564762D01*
X129224524Y-56469524D01*
X129176905Y-56374286D01*
X129129286Y-56183810D01*
X129129286Y-56040953D01*
X129176905Y-55850477D01*
X129224524Y-55755239D01*
X129319762Y-55660001D01*
X129462620Y-55612381D01*
X129557858Y-55612381D01*
X129700715Y-55660001D01*
X129748334Y-55707620D01*
X130700715Y-56612381D02*
X130129286Y-56612381D01*
X130415001Y-56612381D02*
X130415001Y-55612381D01*
X130319762Y-55755239D01*
X130224524Y-55850477D01*
X130129286Y-55898096D01*
%TO.C,C2*%
X129748334Y-59337143D02*
X129700715Y-59384762D01*
X129557858Y-59432381D01*
X129462620Y-59432381D01*
X129319762Y-59384762D01*
X129224524Y-59289524D01*
X129176905Y-59194286D01*
X129129286Y-59003810D01*
X129129286Y-58860953D01*
X129176905Y-58670477D01*
X129224524Y-58575239D01*
X129319762Y-58480001D01*
X129462620Y-58432381D01*
X129557858Y-58432381D01*
X129700715Y-58480001D01*
X129748334Y-58527620D01*
X130129286Y-58527620D02*
X130176905Y-58480001D01*
X130272143Y-58432381D01*
X130510239Y-58432381D01*
X130605477Y-58480001D01*
X130653096Y-58527620D01*
X130700715Y-58622858D01*
X130700715Y-58718096D01*
X130653096Y-58860953D01*
X130081667Y-59432381D01*
X130700715Y-59432381D01*
%TO.C,R1*%
X112598334Y-56692381D02*
X112265001Y-56216191D01*
X112026905Y-56692381D02*
X112026905Y-55692381D01*
X112407858Y-55692381D01*
X112503096Y-55740001D01*
X112550715Y-55787620D01*
X112598334Y-55882858D01*
X112598334Y-56025715D01*
X112550715Y-56120953D01*
X112503096Y-56168572D01*
X112407858Y-56216191D01*
X112026905Y-56216191D01*
X113550715Y-56692381D02*
X112979286Y-56692381D01*
X113265001Y-56692381D02*
X113265001Y-55692381D01*
X113169762Y-55835239D01*
X113074524Y-55930477D01*
X112979286Y-55978096D01*
%TO.C,R2*%
X118348334Y-56692381D02*
X118015001Y-56216191D01*
X117776905Y-56692381D02*
X117776905Y-55692381D01*
X118157858Y-55692381D01*
X118253096Y-55740001D01*
X118300715Y-55787620D01*
X118348334Y-55882858D01*
X118348334Y-56025715D01*
X118300715Y-56120953D01*
X118253096Y-56168572D01*
X118157858Y-56216191D01*
X117776905Y-56216191D01*
X118729286Y-55787620D02*
X118776905Y-55740001D01*
X118872143Y-55692381D01*
X119110239Y-55692381D01*
X119205477Y-55740001D01*
X119253096Y-55787620D01*
X119300715Y-55882858D01*
X119300715Y-55978096D01*
X119253096Y-56120953D01*
X118681667Y-56692381D01*
X119300715Y-56692381D01*
%TO.C,R3*%
X124098334Y-56692381D02*
X123765001Y-56216191D01*
X123526905Y-56692381D02*
X123526905Y-55692381D01*
X123907858Y-55692381D01*
X124003096Y-55740001D01*
X124050715Y-55787620D01*
X124098334Y-55882858D01*
X124098334Y-56025715D01*
X124050715Y-56120953D01*
X124003096Y-56168572D01*
X123907858Y-56216191D01*
X123526905Y-56216191D01*
X124431667Y-55692381D02*
X125050715Y-55692381D01*
X124717381Y-56073334D01*
X124860239Y-56073334D01*
X124955477Y-56120953D01*
X125003096Y-56168572D01*
X125050715Y-56263810D01*
X125050715Y-56501905D01*
X125003096Y-56597143D01*
X124955477Y-56644762D01*
X124860239Y-56692381D01*
X124574524Y-56692381D01*
X124479286Y-56644762D01*
X124431667Y-56597143D01*
%TO.C,U1*%
X104616905Y-58410762D02*
X104759762Y-58458381D01*
X104997858Y-58458381D01*
X105093096Y-58410762D01*
X105140715Y-58363143D01*
X105188334Y-58267905D01*
X105188334Y-58172667D01*
X105140715Y-58077429D01*
X105093096Y-58029810D01*
X104997858Y-57982191D01*
X104807381Y-57934572D01*
X104712143Y-57886953D01*
X104664524Y-57839334D01*
X104616905Y-57744096D01*
X104616905Y-57648858D01*
X104664524Y-57553620D01*
X104712143Y-57506001D01*
X104807381Y-57458381D01*
X105045477Y-57458381D01*
X105188334Y-57506001D01*
X105569286Y-58172667D02*
X106045477Y-58172667D01*
X105474048Y-58458381D02*
X105807381Y-57458381D01*
X106140715Y-58458381D01*
X106664524Y-57458381D02*
X106855001Y-57458381D01*
X106950239Y-57506001D01*
X107045477Y-57601239D01*
X107093096Y-57791715D01*
X107093096Y-58125048D01*
X107045477Y-58315524D01*
X106950239Y-58410762D01*
X106855001Y-58458381D01*
X106664524Y-58458381D01*
X106569286Y-58410762D01*
X106474048Y-58315524D01*
X106426429Y-58125048D01*
X106426429Y-57791715D01*
X106474048Y-57601239D01*
X106569286Y-57506001D01*
X106664524Y-57458381D01*
%TO.C,U2*%
X111903096Y-58607381D02*
X111903096Y-59416905D01*
X111950715Y-59512143D01*
X111998334Y-59559762D01*
X112093572Y-59607381D01*
X112284048Y-59607381D01*
X112379286Y-59559762D01*
X112426905Y-59512143D01*
X112474524Y-59416905D01*
X112474524Y-58607381D01*
X112903096Y-58702620D02*
X112950715Y-58655001D01*
X113045953Y-58607381D01*
X113284048Y-58607381D01*
X113379286Y-58655001D01*
X113426905Y-58702620D01*
X113474524Y-58797858D01*
X113474524Y-58893096D01*
X113426905Y-59035953D01*
X112855477Y-59607381D01*
X113474524Y-59607381D01*
%TO.C,J1*%
X122452380Y-92333333D02*
X123166666Y-92333333D01*
X123309523Y-92380952D01*
X123404761Y-92476190D01*
X123452380Y-92619047D01*
X123452380Y-92714285D01*
X123452380Y-91333333D02*
X123452380Y-91904761D01*
X123452380Y-91619047D02*
X122452380Y-91619047D01*
X122595238Y-91714285D01*
X122690476Y-91809523D01*
X122738095Y-91904761D01*
%TD*%
M02*
